<svg width="22" height="22" viewBox="0 0 22 22" fill="none" xmlns="http://www.w3.org/2000/svg">
<g id="vuesax/outline/close-circle">
<g id="close-circle">
<path id="Vector" d="M11.0002 20.8538C5.56433 20.8538 1.146 16.4355 1.146 10.9997C1.146 5.56384 5.56433 1.14551 11.0002 1.14551C16.436 1.14551 20.8543 5.56384 20.8543 10.9997C20.8543 16.4355 16.436 20.8538 11.0002 20.8538ZM11.0002 2.52051C6.32516 2.52051 2.521 6.32467 2.521 10.9997C2.521 15.6747 6.32516 19.4788 11.0002 19.4788C15.6752 19.4788 19.4793 15.6747 19.4793 10.9997C19.4793 6.32467 15.6752 2.52051 11.0002 2.52051Z" fill="#949494"/>
<path id="Vector_2" d="M8.40591 14.2817C8.23174 14.2817 8.05758 14.2176 7.92008 14.0801C7.65424 13.8142 7.65424 13.3742 7.92008 13.1084L13.1084 7.92008C13.3742 7.65424 13.8142 7.65424 14.0801 7.92008C14.3459 8.18591 14.3459 8.62591 14.0801 8.89174L8.89174 14.0801C8.76341 14.2176 8.58008 14.2817 8.40591 14.2817Z" fill="#949494"/>
<path id="Vector_3" d="M13.5942 14.2817C13.4201 14.2817 13.2459 14.2176 13.1084 14.0801L7.92008 8.89174C7.65424 8.62591 7.65424 8.18591 7.92008 7.92008C8.18591 7.65424 8.62591 7.65424 8.89174 7.92008L14.0801 13.1084C14.3459 13.3742 14.3459 13.8142 14.0801 14.0801C13.9426 14.2176 13.7684 14.2817 13.5942 14.2817Z" fill="#949494"/>
</g>
</g>
</svg>
